# xmcd
#
# Track frame offsets:
#	150
#	14450
#	29182
#	38467
#	51562
#	62021
#	85837
#	97971
#	110690
#	127171
#	137515
#
# Disc length: 2025 seconds
#
# Revision: 0
# Processed by: cddbd v1.5.1PL2 Copyright (c) Steve Scherf et al.
# Submitted via: dBpowerAMP V4.0
#
DISCID=9807e70b
DTITLE=Willie Heath Neal - Unknown
DYEAR=2002
DGENRE=Country
TTITLE0=El Diablo
TTITLE1=Whisky Stains
TTITLE2=Each Road Gets Twice As Long
TTITLE3=You'd Come Back
TTITLE4=Madelyn's Song
TTITLE5=Unknown
TTITLE6=Rocks In My Pocket
TTITLE7=Willie's Rant
TTITLE8=The Damsel
TTITLE9=Fear and Loathing (In A Small Town)
TTITLE10=Bonus Track 1
EXTD=
EXTT0=
EXTT1=
EXTT2=
EXTT3=
EXTT4=
EXTT5=
EXTT6=
EXTT7=
EXTT8=
EXTT9=
EXTT10=
PLAYORDER=
